<?xml version="1.0" encoding="utf-8"?>
<!-- Generator: Adobe Illustrator 28.0.0, SVG Export Plug-In . SVG Version: 6.00 Build 0)  -->
<svg version="1.1"
	 id="Layer_1" xmlns:rdf="http://www.w3.org/1999/02/22-rdf-syntax-ns#" xmlns:cc="http://creativecommons.org/ns#" xmlns:dc="http://purl.org/dc/elements/1.1/"
	 xmlns="http://www.w3.org/2000/svg" xmlns:xlink="http://www.w3.org/1999/xlink" x="0px" y="0px" viewBox="0 0 6000 6000"
	 style="enable-background:new 0 0 6000 6000;" xml:space="preserve">
<style type="text/css">
	.st0{fill:none;}
	.st1{fill:#FFFFFF;}
	.st2{fill:url(#SVGID_1_);}
</style>
<rect y="0.2" class="st0" width="5999.9" height="5999.9"/>
<g>
	<path class="st1" d="M2999.5,1000.7c-1102.5,0-1999.5,897-1999.5,1999.5c0,1102.5,897,1999.5,1999.5,1999.5
		S4999,4102.7,4999,3000.2C4999,1897.7,4102,1000.7,2999.5,1000.7z"/>
	<g>
		<path d="M4384.3,1734.3c-72.7,0-143.3-14.3-209.9-42.4c-64.2-27.2-121.9-66-171.3-115.5c-49.5-49.5-88.3-107.1-115.5-171.3
			c-28.2-66.6-42.4-137.2-42.4-209.9s14.3-143.3,42.4-209.9c27.2-64.2,66-121.9,115.5-171.3c49.5-49.5,107.1-88.3,171.3-115.5
			c66.6-28.2,137.2-42.4,209.9-42.4s143.3,14.3,209.9,42.4c64.2,27.2,121.9,66,171.3,115.5c49.5,49.5,88.3,107.1,115.5,171.3
			c28.2,66.6,42.5,137.2,42.5,209.9s-14.3,143.3-42.5,209.9c-27.2,64.2-66,121.9-115.5,171.3c-49.5,49.5-107.1,88.3-171.3,115.5
			C4527.7,1720,4457.1,1734.3,4384.3,1734.3z"/>
		<path class="st1" d="M4384.3,840c196.1,0,355.1,159,355.1,355.1s-159,355.1-355.1,355.1s-355.1-159-355.1-355.1
			S4188.2,840,4384.3,840 M4384.3,471.7c-48.8,0-97.8,4.9-145.4,14.7c-46.6,9.5-92.5,23.8-136.3,42.3c-42.9,18.2-84.3,40.6-123,66.8
			c-38.2,25.8-74.2,55.5-106.8,88.1c-32.6,32.6-62.3,68.6-88.1,106.8c-26.1,38.7-48.6,80.1-66.8,123
			c-18.5,43.8-32.8,89.7-42.3,136.3c-9.7,47.6-14.7,96.6-14.7,145.4s4.9,97.8,14.7,145.4c9.5,46.6,23.8,92.5,42.3,136.3
			c18.2,42.9,40.6,84.3,66.8,123c25.8,38.2,55.5,74.2,88.1,106.8c32.6,32.6,68.6,62.3,106.8,88.1c38.7,26.1,80.1,48.6,123,66.8
			c43.8,18.5,89.7,32.8,136.3,42.3c47.6,9.7,96.6,14.7,145.4,14.7s97.8-4.9,145.4-14.7c46.6-9.5,92.5-23.8,136.3-42.3
			c42.9-18.2,84.3-40.6,123-66.8c38.2-25.8,74.2-55.5,106.8-88.1c32.6-32.6,62.3-68.6,88.1-106.8c26.1-38.7,48.6-80.1,66.8-123
			c18.5-43.8,32.8-89.7,42.3-136.3c9.7-47.6,14.7-96.6,14.7-145.4s-4.9-97.8-14.7-145.4c-9.5-46.6-23.8-92.5-42.3-136.3
			c-18.2-42.9-40.6-84.3-66.8-123c-25.8-38.2-55.5-74.2-88.1-106.8c-32.6-32.6-68.6-62.3-106.8-88.1c-38.7-26.1-80.1-48.6-123-66.8
			c-43.8-18.5-89.7-32.8-136.3-42.3C4482.1,476.7,4433.2,471.7,4384.3,471.7L4384.3,471.7z"/>
	</g>
	<g>
		<circle cx="4384.3" cy="1195.1" r="355.1"/>
		<g>
			<linearGradient id="SVGID_1_" gradientUnits="userSpaceOnUse" x1="496.7286" y1="3000.2209" x2="5502.2715" y2="3000.2209">
				<stop  offset="0.294" style="stop-color:#00DDD5"/>
				<stop  offset="0.3957" style="stop-color:#2ADFA0"/>
				<stop  offset="0.5035" style="stop-color:#51E170"/>
				<stop  offset="0.6109" style="stop-color:#72E348"/>
				<stop  offset="0.7156" style="stop-color:#8BE428"/>
				<stop  offset="0.8169" style="stop-color:#9DE512"/>
				<stop  offset="0.9135" style="stop-color:#A7E605"/>
				<stop  offset="1" style="stop-color:#ABE600"/>
			</linearGradient>
			<path class="st2" d="M5024.5,1531.3c-80.8,153.2-214.8,273.9-377.4,337.5c221.8,322,351.9,711.8,351.9,1131.5
				c0,1102.5-897,1999.5-1999.5,1999.5S1000,4102.7,1000,3000.2c0-1102.5,897-1999.5,1999.5-1999.5c233.4,0,457.6,40.3,666.1,114.2
				c19.7-177.9,104.1-336.6,229.2-451.8c-278.1-106.9-580-165.7-895.3-165.7c-1380,0-2502.8,1122.7-2502.8,2502.8
				c0,1380,1122.7,2502.8,2502.8,2502.8s2502.8-1122.7,2502.8-2502.8C5502.3,2451.8,5324.8,1944.1,5024.5,1531.3z"/>
		</g>
		<g>
			<path d="M2826.1,2089.4c69.3-49.7,166.8-74.6,292.4-74.6c185.8,0,404.3,69.4,655.5,208l215.9-435.7
				c-136.1-88.9-276.1-157.6-420-206.1c-143.9-48.4-323.2-72.6-537.7-72.6c-272.2,13.1-490,95.6-653.5,247.3
				c-163.6,151.8-245.3,352-245.3,600.5c0,170.1,39.9,311.4,119.7,423.9c79.8,112.5,174.7,198.9,284.6,259.1
				c109.9,60.2,247.3,123,412.1,188.4c280,109.9,420,239.4,420,388.6c0,115.2-44.5,198.2-133.5,249.2c-89,51-193.7,76.5-314,76.5
				c-102,0-217.2-23.5-345.4-70.6c-128.2-47.1-242.1-107.3-341.5-180.6l-251.2,443.5c146.5,104.7,304.8,182.5,474.9,233.5
				c170.1,51,341.5,76.6,514.2,76.6c206.7,0,384.7-37.3,533.8-111.9c149.2-74.6,262.3-175.3,339.5-302.2
				c77.2-126.9,115.8-265,115.8-414.1c0-172.7-32.1-315.3-96.2-427.8c-64.1-112.5-144.6-200.8-241.4-264.9
				c-96.8-64.1-213.3-121-349.3-170.8c-167.5-62.8-301.6-128.9-402.3-198.2c-100.8-69.3-151.1-149.8-151.1-241.4
				C2722.1,2213.8,2756.7,2139.2,2826.1,2089.4z"/>
		</g>
	</g>
</g>
</svg>
