<?xml version="1.0" encoding="utf-8"?>
<!-- Generator: Adobe Illustrator 27.9.0, SVG Export Plug-In . SVG Version: 6.00 Build 0)  -->
<svg version="1.1" xmlns="http://www.w3.org/2000/svg" xmlns:xlink="http://www.w3.org/1999/xlink" x="0px" y="0px"
	 viewBox="0 0 6000 6000" style="enable-background:new 0 0 6000 6000;" xml:space="preserve">
<style type="text/css">
	.st0{fill:url(#SVGID_1_);}
	.st1{fill:#231F20;}
</style>
<g id="Layer_4">
	<linearGradient id="SVGID_1_" gradientUnits="userSpaceOnUse" x1="278.2981" y1="2992.8274" x2="5746.2529" y2="2992.8274">
		<stop  offset="1.283339e-04" style="stop-color:#00D9CC"/>
		<stop  offset="0.9998" style="stop-color:#A6E702"/>
	</linearGradient>
	<path class="st0" d="M5222.3,1383c329.5,451.6,523.9,1008,523.9,1609.8c0,1509.9-1224,2734-2734,2734s-2734-1224-2734-2734
		s1224-2734,2734-2734c346.1,0,677.2,64.3,981.9,181.6c0,0-85.7,86.7-168.8,210.1c-83,123.5-86.8,288.1-86.8,288.1
		C3510.4,857,3264.4,812.5,3008,812.5c-1197.1,0-2167.6,970.5-2167.6,2167.6S1810.9,5147.6,3008,5147.6s2167.6-970.5,2167.6-2167.6
		c0-450.6-137.5-869.1-372.8-1215.8c0,0,136.3-40.5,249.1-153.3S5222.3,1383,5222.3,1383z"/>
</g>
<g id="Layer_3">
	<path class="st1" d="M3752.5,2263.6c0,0-340.7-194.7-635.9-194.7s-379.6,165.5-379.6,266s0,256.3,571,457.5
		s632.7,561.3,635.9,827.3c0,0,29.2,794.9-973.4,794.9c0,0-477.8,26-939.7-301.7l248.6-428.3c0,0,347.2,243.3,674.9,243.3
		s418.5-155.7,418.5-285.5c0-129.8-84.4-317.1-593.7-480.2c-515.9-165.2-603-535.6-603-808.2s249.3-775.1,927.4-775.1
		c0,0,467.2-3.2,859.8,269.3L3752.5,2263.6z"/>
	<circle class="st1" cx="4521.3" cy="1029.6" r="379"/>
</g>
</svg>
