<?xml version="1.0" encoding="utf-8"?>
<!-- Generator: Adobe Illustrator 28.0.0, SVG Export Plug-In . SVG Version: 6.00 Build 0)  -->
<svg version="1.1"
	 id="Monero-Logo" xmlns:svg="http://www.w3.org/2000/svg" xmlns:rdf="http://www.w3.org/1999/02/22-rdf-syntax-ns#" xmlns:cc="http://creativecommons.org/ns#" xmlns:dc="http://purl.org/dc/elements/1.1/"
	 xmlns="http://www.w3.org/2000/svg" xmlns:xlink="http://www.w3.org/1999/xlink" x="0px" y="0px" viewBox="0 0 282 75"
	 style="enable-background:new 0 0 282 75;" xml:space="preserve">
<style type="text/css">
	.st0{fill:url(#SVGID_1_);}
	.st1{fill:#2F292B;}
	.st2{fill:url(#SVGID_00000150070773215053090210000002481720923636911270_);}
</style>
<g>
	<polygon points="274.9,53.8 269,53.8 269,36.2 259,47.2 249.6,36.4 249.6,53.8 243.8,53.8 243.8,20.7 259.1,38.2 274.9,20.9 	"/>
	<g>
		<path d="M125.9,47.5h-10.7l-2.6,6.2h-6.2L120.9,21h0.3l14.5,32.7h-7.3L125.9,47.5z M123.8,42.3l-3.1-7.7l-3.2,7.7H123.8z"/>
	</g>
	<polygon points="174.5,38.8 167,21.2 159.3,21.2 174.2,54 189.1,21.2 181.5,21.2 	"/>
	<path d="M91.9,27.3c0.8-0.6,1.9-0.8,3.3-0.8c2.1,0,4.6,0.8,7.4,2.3l2.4-4.9c-1.5-1-3.1-1.8-4.7-2.3c-1.6-0.5-3.6-0.8-6.1-0.8
		c-3.1,0.1-5.5,1.1-7.4,2.8c-1.8,1.7-2.8,4-2.8,6.8c0,1.9,0.5,3.5,1.4,4.8c0.9,1.3,2,2.2,3.2,2.9c1.2,0.7,2.8,1.4,4.7,2.1
		c3.2,1.2,4.7,2.7,4.7,4.4c0,1.3-0.5,2.2-1.5,2.8c-1,0.6-2.2,0.9-3.5,0.9c-1.2,0-2.5-0.3-3.9-0.8c-1.4-0.5-2.7-1.2-3.9-2l-2.8,5
		c1.7,1.2,3.4,2.1,5.4,2.6c1.9,0.6,3.9,0.9,5.8,0.9c2.3,0,4.3-0.4,6-1.3c1.7-0.8,3-2,3.8-3.4c0.9-1.4,1.3-3,1.3-4.7
		c0-1.9-0.4-3.6-1.1-4.8c-0.7-1.3-1.6-2.3-2.7-3c-1.1-0.7-2.4-1.4-3.9-1.9c-1.9-0.7-3.4-1.5-4.5-2.2c-1.1-0.8-1.7-1.7-1.7-2.7
		C90.7,28.7,91.1,27.9,91.9,27.3z"/>
	<polygon points="146.4,21.2 140,21.2 140,53.8 161.8,53.8 161.8,47.6 146.4,47.6 	"/>
	<path d="M230,41.7c0,1-0.3,2-0.9,3c-0.6,0.9-1.4,1.7-2.5,2.3c-1.1,0.6-2.2,0.9-3.5,0.9c-1.2,0-2.3-0.3-3.3-0.9
		c-1-0.6-1.9-1.4-2.5-2.3c-0.6-0.9-0.9-1.9-0.9-3V21.2h-6.4v20.7c0,2.3,0.6,4.4,1.8,6.3c1.2,1.9,2.8,3.3,4.8,4.4
		c2,1,4.2,1.6,6.7,1.6c2.4,0,4.6-0.5,6.7-1.6c2-1,3.6-2.5,4.8-4.4c1.2-1.9,1.8-4,1.8-6.3V21.2H230V41.7z"/>
	<rect x="194.8" y="21.2" width="6.4" height="32.6"/>
</g>
<g>
	
		<linearGradient id="SVGID_1_" gradientUnits="userSpaceOnUse" x1="2485.8677" y1="2006.524" x2="2524.177" y2="2006.524" gradientTransform="matrix(0.7364 -0.4028 0.4799 0.8773 -2773.0798 -713.5728)">
		<stop  offset="1.829013e-04" style="stop-color:#00DDD5"/>
		<stop  offset="1" style="stop-color:#ABE600"/>
	</linearGradient>
	<path class="st0" d="M48.3,70.9c-3.4,0-7.5-1.8-11.8-5.3c-5.7-4.7-11.4-11.9-16-20.3c-4.6-8.4-7.6-17.1-8.4-24.4
		C11.1,13,12.9,7.5,16.9,5.3c4-2.2,9.7-0.7,15.8,4.4c5.7,4.7,11.4,11.9,16,20.3l0,0c4.6,8.4,7.6,17.1,8.4,24.4
		c0.9,7.9-0.8,13.5-4.9,15.7C51.1,70.6,49.7,70.9,48.3,70.9z M20.9,8c-0.8,0-1.6,0.2-2.2,0.5c-2.6,1.4-3.7,5.8-2.9,12
		c0.8,6.9,3.6,15,8,23c4.4,8,9.7,14.8,15.1,19.2c4.8,3.9,9.1,5.4,11.7,4c2.6-1.4,3.7-5.8,2.9-12c-0.8-6.9-3.6-15-8-23l0,0
		c-4.4-8-9.7-14.8-15.1-19.2C26.7,9.6,23.4,8,20.9,8z"/>
	<circle class="st1" cx="62.8" cy="26.6" r="2.5"/>
	
		<linearGradient id="SVGID_00000099627993433093230910000017320328536144579480_" gradientUnits="userSpaceOnUse" x1="10.3931" y1="27.4603" x2="69.2937" y2="27.4603">
		<stop  offset="0.294" style="stop-color:#00DDD5"/>
		<stop  offset="0.3957" style="stop-color:#2ADFA0"/>
		<stop  offset="0.5035" style="stop-color:#51E170"/>
		<stop  offset="0.6109" style="stop-color:#72E348"/>
		<stop  offset="0.7156" style="stop-color:#8BE428"/>
		<stop  offset="0.8169" style="stop-color:#9DE512"/>
		<stop  offset="0.9135" style="stop-color:#A7E605"/>
		<stop  offset="1" style="stop-color:#ABE600"/>
	</linearGradient>
	<path style="fill:url(#SVGID_00000099627993433093230910000017320328536144579480_);" d="M58,28.3c-3.3,3.3-7.4,6.5-12,9.3
		c-6.9,4.2-14,6.9-20.1,7.6c-5.5,0.7-9.5-0.3-11-2.7c-1.5-2.4-0.5-6.4,2.7-11c3.5-5,9.3-10.1,16.1-14.3c6.9-4.2,14-6.9,20.1-7.6
		c1.2-0.1,2.2-0.2,3.2-0.2c3.8,0,6.6,1,7.7,2.9c1.3,2.1,0.7,5.4-1.5,9.1c1.3,0.1,2.5,0.8,3.4,1.8c2.9-5,3.4-9.5,1.4-12.9
		C65.8,6.6,60.5,5,53.4,5.9C46.8,6.7,39.1,9.6,31.7,14c-7.3,4.4-13.5,9.9-17.3,15.3c-4.1,5.9-5.1,11.3-2.8,15.1
		c1.9,3.1,5.7,4.8,11,4.8c1.2,0,2.4-0.1,3.7-0.2c6.6-0.8,14.3-3.7,21.6-8.2c4.8-2.9,9.1-6.2,12.5-9.7C59.3,30.6,58.4,29.5,58,28.3z"
		/>
</g>
</svg>
